<svg version="1.1" xmlns="http://www.w3.org/2000/svg" viewBox="-266.2 -1085.2 5207.9 5973.999999999999"><desc>Created with Snap</desc><defs><linearGradient x1="-266.2" y1="-1085.2" x2="4941.7" y2="-1085.2" gradientUnits="userSpaceOnUse" id="linearGradientSky04ugnw1sh"><stop offset="0%" stop-color="#222e49"></stop><stop offset="100%" stop-color="#5064ae"></stop></linearGradient></defs><g><rect x="-266.2" y="-1085.2" width="5207.9" height="5973.999999999999" fill="url('#linearGradientSky04ugnw1sh')"></rect><g transform="matrix(28.1001,0,0,28.1001,932.7445,1914.8994)"><g><path d="M78.4,66.5c-5.5,4.8-9.9,15.2-9.9,15.2s-6.9-11.4-12.9-15.3c-9.5-6.1-13.6-6.2-13.6-6.2V65c0,0,7.8,1.2,11.7,4.6   c8.2,7.1,14.8,18.5,14.8,18.5S74.4,75,80.1,70.5C88.1,64.3,95,65,95,65v-4.8C95,60.1,85.1,60.7,78.4,66.5z" fill="#ffffff" style=""></path><path d="M42,80c-6.4-3.6-17.8-4.3-17.8-4.3s8.7-10.1,10.5-17C37.5,47.9,36.2,44,36.2,44l-4.6,1.6c0,0,1.3,7.7-0.6,12.4   c-4.1,9.9-13,19.8-13,19.8s14.6,1.3,20.7,5.1c8.6,5.4,10.2,12,10.2,12l4.6-1.6C53.5,93.4,49.7,84.4,42,80z" fill="#ffffff" style=""></path><path d="M35.3,36.8c11.3-0.9,14.6-3.4,14.6-3.4l-3-3.8c0,0-6.9,3.7-12.1,3.4c-10.9-0.6-23.3-5.6-23.3-5.6s3.5,14,1.8,20.9   C10.9,58.2,5,61.8,5,61.8l3,3.8c0,0,7.5-6.5,9.1-15.1c1.3-7.1-1.7-18-1.7-18S28,37.4,35.3,36.8z" fill="#ffffff" style=""></path><path d="M37.4,17.8c7.3-1.1,16.7-7.4,16.7-7.4s-0.6,13.2,2.4,19.8c4.6,10.2,8,12.5,8,12.5l2.7-4c0,0-5.9-5.2-7.3-10.2   C56.9,18.2,57.7,5,57.7,5s-12.3,7.8-19.5,8.5c-10.2,1-15.6-3.3-15.6-3.3l-2.7,4.1C19.9,14.2,28.6,19.1,37.4,17.8z" fill="#ffffff" style=""></path><path d="M65,60.5c0,0,3.1-7.2,7.4-10.1c9-6.1,21.9-9.7,21.9-9.7s-11.5-8.9-14.5-15.4c-4.2-9.1-1.9-15.6-1.9-15.6l-4.8-1.2   c0,0-1.9,9.6,2.2,17.4c3.4,6.4,12.5,13.2,12.5,13.2S75,42.9,69.6,47.8c-8.3,7.6-9.4,11.5-9.4,11.5L65,60.5z" fill="#ffffff" style=""></path></g><desc>Created with Snap</desc><defs></defs></g><g><g transform="matrix(0.5,0,0,-0.5,0,0)"><path d="M1346 705L1346 616L1202 616L1202 29Q1202 -107 1156 -209Q1110 -310 1027 -378Q945 -445 832 -479Q719 -512 586 -512Q535 -512 488 -504Q441 -495 405 -480Q369 -465 347 -445Q326 -424 326 -399Q326 -381 331 -363Q336 -344 346 -329Q356 -314 370 -305Q385 -295 403 -295Q415 -295 423 -306Q431 -317 440 -333Q449 -349 461 -369Q473 -388 491 -404Q509 -420 535 -431Q561 -442 600 -442Q677 -442 736 -414Q795 -386 834 -336Q874 -285 894 -215Q915 -144 915 -59L915 2Q873 -7 830 -12Q788 -16 735 -16Q599 -16 480 25Q361 67 272 154Q184 241 133 376Q82 511 82 698Q82 828 110 938Q138 1048 188 1136Q238 1225 306 1292Q375 1359 455 1404Q536 1449 625 1472Q715 1495 807 1495Q894 1495 969 1478Q1044 1462 1099 1430Q1155 1399 1187 1352Q1219 1306 1219 1247Q1219 1220 1209 1190Q1200 1161 1182 1136Q1164 1112 1136 1096Q1109 1081 1073 1081Q1030 1081 1009 1105Q989 1130 978 1166Q968 1202 963 1245Q958 1288 946 1324Q934 1360 909 1384Q885 1409 838 1409Q803 1409 759 1392Q715 1375 670 1338Q625 1302 581 1245Q538 1189 504 1110Q471 1031 450 928Q430 826 430 698Q430 556 448 455Q466 355 495 287Q525 220 563 180Q602 141 643 121Q684 101 724 95Q765 90 799 90Q834 90 863 95Q892 101 915 111L915 616L739 616L739 705L1346 705ZM2390 145L2310 422L1933 422Q1891 290 1842 193Q1794 96 1735 32Q1676 -32 1605 -63Q1535 -94 1448 -94Q1400 -94 1355 -86Q1311 -77 1277 -62Q1243 -47 1222 -27Q1202 -6 1202 18Q1202 36 1207 54Q1213 73 1223 88Q1233 104 1247 113Q1262 123 1280 123Q1296 123 1308 101Q1320 79 1338 52Q1357 26 1386 4Q1415 -18 1466 -18Q1518 -18 1565 7Q1612 32 1655 85Q1699 139 1739 222Q1779 305 1817 422L1581 422L1581 510L1843 510Q1876 622 1907 736Q1939 850 1967 955Q1995 1060 2017 1151Q2039 1243 2054 1311Q2034 1367 1999 1386Q1965 1405 1907 1405Q1853 1405 1795 1388Q1738 1372 1691 1341Q1644 1311 1613 1266Q1583 1222 1583 1167Q1583 1135 1591 1116Q1600 1097 1611 1087Q1623 1078 1634 1075Q1645 1073 1651 1073Q1675 1073 1691 1081Q1708 1090 1720 1099Q1733 1109 1745 1117Q1757 1126 1772 1126Q1783 1126 1796 1120Q1810 1115 1821 1103Q1833 1091 1841 1071Q1849 1052 1849 1024Q1849 984 1833 955Q1818 926 1793 906Q1769 887 1737 877Q1706 868 1675 868Q1627 868 1588 885Q1550 903 1523 933Q1496 963 1482 1003Q1468 1043 1468 1087Q1468 1153 1490 1208Q1512 1264 1551 1309Q1590 1355 1643 1389Q1696 1424 1757 1447Q1819 1471 1886 1483Q1953 1495 2021 1495Q2117 1495 2183 1479Q2250 1464 2295 1433Q2340 1403 2367 1356Q2395 1310 2413 1249L2628 510L2845 510L2845 422L2652 422L2730 160Q2734 145 2738 132Q2742 119 2747 109Q2753 100 2761 94Q2770 88 2783 88Q2811 88 2835 97Q2859 107 2877 117L2894 80Q2876 67 2848 50Q2821 34 2785 19Q2750 4 2707 -6Q2664 -16 2615 -16Q2547 -16 2505 1Q2464 18 2440 43Q2417 68 2406 96Q2396 124 2390 145ZM2286 510L2116 1098Q2075 931 2036 784Q1998 637 1960 510L2286 510ZM4305 -16Q4254 -16 4221 -7Q4188 3 4167 19Q4147 35 4137 54Q4127 74 4123 94Q4060 48 3978 16Q3896 -16 3793 -16Q3701 -16 3622 10Q3544 36 3485 90Q3427 145 3394 230Q3361 316 3361 436Q3361 524 3364 594Q3367 664 3371 725Q3376 787 3381 844Q3387 901 3391 963Q3396 1025 3399 1096Q3402 1167 3402 1257Q3402 1285 3396 1310Q3391 1336 3378 1355Q3366 1375 3344 1387Q3322 1399 3289 1399Q3257 1399 3209 1383Q3161 1368 3116 1338Q3072 1309 3040 1265Q3009 1222 3009 1167Q3009 1135 3017 1116Q3026 1097 3037 1087Q3048 1078 3059 1075Q3071 1073 3076 1073Q3101 1073 3117 1081Q3133 1090 3146 1099Q3159 1109 3170 1117Q3182 1126 3197 1126Q3209 1126 3222 1120Q3236 1115 3247 1103Q3259 1091 3267 1071Q3275 1052 3275 1024Q3275 984 3259 955Q3244 926 3219 906Q3195 887 3163 877Q3132 868 3101 868Q3053 868 3014 884Q2976 901 2949 930Q2922 959 2908 998Q2894 1037 2894 1081Q2894 1150 2917 1207Q2940 1265 2980 1311Q3020 1357 3072 1391Q3125 1426 3185 1449Q3245 1472 3308 1483Q3371 1495 3431 1495Q3500 1495 3548 1480Q3597 1466 3630 1443Q3664 1420 3683 1392Q3703 1364 3713 1337Q3724 1311 3727 1289Q3730 1268 3730 1257Q3730 1176 3727 1108Q3724 1041 3719 979Q3715 917 3709 857Q3704 798 3699 733Q3695 669 3692 596Q3689 524 3689 436Q3689 327 3710 260Q3732 194 3764 158Q3796 122 3832 110Q3869 98 3898 98Q3953 98 4009 116Q4066 134 4119 168L4119 1327Q4119 1356 4106 1373Q4094 1391 4068 1391Q4040 1391 4016 1381Q3992 1371 3973 1362L3957 1399Q3982 1412 4018 1428Q4054 1445 4095 1460Q4136 1475 4179 1485Q4222 1495 4260 1495Q4328 1495 4365 1477Q4403 1460 4421 1434Q4439 1409 4442 1380Q4446 1351 4446 1329L4446 152Q4446 123 4459 105Q4472 88 4498 88Q4525 88 4549 97Q4573 107 4592 117L4608 80Q4583 67 4547 50Q4511 34 4470 19Q4429 4 4386 -6Q4343 -16 4305 -16ZM5472 1495Q5744 1495 5887 1398Q6031 1302 6031 1122Q6031 1034 6010 971Q5990 909 5953 865Q5917 822 5866 793Q5816 765 5757 745Q5798 734 5839 686Q5881 638 5924 567Q5967 497 6011 411Q6055 325 6099 237Q6144 149 6189 66Q6235 -17 6280 -82Q6326 -147 6372 -186Q6419 -225 6465 -225Q6485 -225 6504 -217Q6524 -209 6535 -201L6556 -240Q6536 -251 6507 -265Q6478 -278 6439 -290Q6400 -302 6351 -311Q6303 -319 6244 -319Q6147 -319 6069 -266Q5991 -212 5935 -115Q5878 -15 5823 95Q5768 205 5713 315Q5659 425 5604 530Q5550 635 5495 727L5503 768Q5562 753 5605 775Q5649 797 5677 846Q5705 896 5718 968Q5732 1040 5732 1124Q5732 1184 5719 1236Q5706 1289 5682 1328Q5659 1368 5626 1390Q5593 1413 5552 1413Q5520 1413 5499 1403Q5479 1394 5467 1379Q5455 1365 5450 1348Q5446 1332 5446 1317L5446 131Q5446 54 5405 19Q5365 -16 5282 -16Q5198 -16 5158 19Q5118 54 5118 131L5118 1327Q5118 1382 5042 1382Q4987 1382 4930 1365Q4874 1349 4828 1320Q4783 1292 4754 1252Q4725 1213 4725 1167Q4725 1135 4733 1116Q4742 1097 4753 1087Q4764 1078 4775 1075Q4787 1073 4792 1073Q4817 1073 4833 1081Q4849 1090 4862 1099Q4875 1109 4886 1117Q4898 1126 4913 1126Q4925 1126 4938 1120Q4952 1115 4963 1103Q4975 1091 4983 1071Q4991 1052 4991 1024Q4991 984 4975 955Q4960 926 4935 906Q4911 887 4879 877Q4848 868 4817 868Q4769 868 4730 884Q4692 901 4665 930Q4638 959 4624 998Q4610 1037 4610 1081Q4610 1164 4641 1227Q4672 1291 4728 1337Q4785 1383 4864 1413Q4943 1444 5039 1462Q5135 1480 5244 1487Q5354 1495 5472 1495ZM7252 145L7172 422L6795 422Q6753 290 6704 193Q6656 96 6597 32Q6538 -32 6467 -63Q6397 -94 6310 -94Q6262 -94 6217 -86Q6173 -77 6139 -62Q6105 -47 6084 -27Q6064 -6 6064 18Q6064 36 6069 54Q6075 73 6085 88Q6095 104 6109 113Q6124 123 6142 123Q6158 123 6170 101Q6182 79 6200 52Q6219 26 6248 4Q6277 -18 6328 -18Q6380 -18 6427 7Q6474 32 6517 85Q6561 139 6601 222Q6641 305 6679 422L6443 422L6443 510L6705 510Q6738 622 6769 736Q6801 850 6829 955Q6857 1060 6879 1151Q6901 1243 6916 1311Q6896 1367 6861 1386Q6827 1405 6769 1405Q6715 1405 6657 1388Q6600 1372 6553 1341Q6506 1311 6475 1266Q6445 1222 6445 1167Q6445 1135 6453 1116Q6462 1097 6473 1087Q6485 1078 6496 1075Q6507 1073 6513 1073Q6537 1073 6553 1081Q6570 1090 6582 1099Q6595 1109 6607 1117Q6619 1126 6634 1126Q6645 1126 6658 1120Q6672 1115 6683 1103Q6695 1091 6703 1071Q6711 1052 6711 1024Q6711 984 6695 955Q6680 926 6655 906Q6631 887 6599 877Q6568 868 6537 868Q6489 868 6450 885Q6412 903 6385 933Q6358 963 6344 1003Q6330 1043 6330 1087Q6330 1153 6352 1208Q6374 1264 6413 1309Q6452 1355 6505 1389Q6558 1424 6619 1447Q6681 1471 6748 1483Q6815 1495 6883 1495Q6979 1495 7045 1479Q7112 1464 7157 1433Q7202 1403 7229 1356Q7257 1310 7275 1249L7490 510L7707 510L7707 422L7514 422L7592 160Q7596 145 7600 132Q7604 119 7609 109Q7615 100 7623 94Q7632 88 7645 88Q7673 88 7697 97Q7721 107 7739 117L7756 80Q7738 67 7710 50Q7683 34 7647 19Q7612 4 7569 -6Q7526 -16 7477 -16Q7409 -16 7367 1Q7326 18 7302 43Q7279 68 7268 96Q7258 124 7252 145ZM7148 510L6978 1098Q6937 931 6898 784Q6860 637 6822 510L7148 510ZM8596 1161L8866 344Q8902 437 8942 551Q8982 666 9015 783Q9049 901 9071 1012Q9093 1123 9093 1210Q9093 1276 9084 1320Q9075 1364 9063 1393Q9052 1423 9043 1442Q9034 1461 9034 1477Q9034 1498 9045 1512Q9057 1527 9074 1537Q9091 1547 9111 1551Q9131 1556 9149 1556Q9189 1556 9216 1544Q9244 1532 9255 1503Q9260 1488 9263 1471Q9266 1455 9267 1439Q9269 1424 9269 1410Q9269 1397 9269 1389Q9269 1347 9255 1274Q9241 1201 9217 1109Q9194 1017 9163 912Q9132 807 9099 700Q9066 594 9032 492Q8998 390 8968 303Q8938 217 8914 152Q8891 87 8878 55Q8869 32 8855 18Q8842 4 8825 -4Q8808 -11 8787 -14Q8767 -16 8745 -16Q8705 -16 8680 -8Q8655 0 8639 12Q8624 24 8617 38Q8610 52 8606 63L8227 1253Q8216 1287 8204 1310Q8193 1334 8176 1349Q8160 1364 8137 1371Q8114 1378 8080 1378Q8052 1378 8015 1364Q7978 1351 7944 1324Q7911 1298 7888 1258Q7865 1219 7865 1167Q7865 1135 7873 1116Q7882 1097 7893 1087Q7904 1078 7915 1075Q7927 1073 7932 1073Q7957 1073 7973 1081Q7989 1090 8002 1099Q8015 1109 8026 1117Q8038 1126 8053 1126Q8065 1126 8078 1120Q8092 1115 8103 1103Q8115 1091 8123 1071Q8131 1052 8131 1024Q8131 984 8115 955Q8100 926 8075 906Q8051 887 8019 877Q7988 868 7957 868Q7909 868 7871 885Q7834 902 7808 931Q7783 960 7769 998Q7756 1037 7756 1081Q7756 1185 7796 1262Q7836 1340 7902 1392Q7968 1444 8052 1469Q8136 1495 8225 1495Q8325 1495 8389 1464Q8453 1434 8492 1386Q8532 1338 8555 1278Q8578 1219 8596 1161Z" fill="#ffffff" style=""></path></g></g><g transform="matrix(1,0,0,1,574.5,1492.2)"><g transform="matrix(0.5,0,0,-0.5,0,0)"><path d="M436 -145Q476 -145 515 -131Q554 -116 584 -83Q615 -49 634 5Q653 59 653 137Q653 221 611 300Q570 379 507 455Q445 532 372 607Q300 683 237 761Q175 840 133 923Q92 1007 92 1098Q92 1189 125 1262Q159 1336 216 1387Q274 1439 350 1467Q427 1495 514 1495Q607 1495 679 1475Q752 1456 802 1422Q853 1389 879 1343Q905 1298 905 1247Q905 1223 898 1197Q891 1172 876 1151Q861 1130 838 1116Q815 1102 784 1102Q747 1102 729 1124Q712 1147 703 1180Q695 1213 689 1252Q683 1292 670 1325Q657 1358 631 1380Q605 1403 555 1403Q528 1403 501 1391Q475 1379 453 1354Q432 1330 419 1292Q406 1254 406 1202Q406 1142 431 1085Q456 1028 497 972Q538 917 590 861Q643 806 697 749Q752 693 804 633Q857 574 898 510Q939 446 964 376Q989 306 989 229Q989 116 945 27Q902 -61 827 -122Q753 -182 653 -214Q553 -246 440 -246Q338 -246 259 -221Q181 -195 127 -153Q73 -111 45 -58Q18 -4 18 53Q18 77 25 104Q33 132 47 155Q62 178 84 193Q106 209 135 209Q165 209 183 194Q202 179 213 154Q224 129 231 97Q238 65 246 32Q254 -1 266 -33Q278 -65 299 -90Q320 -115 353 -130Q386 -145 436 -145ZM1889 1356L1889 131Q1889 54 1848 19Q1808 -16 1725 -16Q1641 -16 1601 19Q1561 54 1561 131L1561 1335Q1561 1357 1556 1370Q1551 1383 1542 1390Q1533 1398 1520 1400Q1508 1403 1493 1403Q1471 1403 1438 1396Q1406 1389 1370 1375Q1334 1361 1297 1340Q1261 1320 1232 1294Q1204 1268 1186 1236Q1168 1204 1168 1167Q1168 1135 1176 1116Q1185 1097 1196 1087Q1207 1078 1218 1075Q1230 1073 1235 1073Q1260 1073 1276 1081Q1292 1090 1305 1099Q1318 1109 1329 1117Q1341 1126 1356 1126Q1368 1126 1381 1120Q1395 1115 1406 1103Q1418 1091 1426 1071Q1434 1052 1434 1024Q1434 984 1418 955Q1403 926 1378 906Q1354 887 1322 877Q1291 868 1260 868Q1212 868 1173 884Q1135 901 1108 930Q1081 959 1067 998Q1053 1037 1053 1081Q1053 1150 1078 1207Q1103 1265 1146 1311Q1190 1357 1248 1391Q1307 1426 1375 1449Q1443 1472 1517 1483Q1591 1495 1665 1495Q1747 1495 1792 1479Q1838 1464 1859 1442Q1881 1420 1885 1396Q1889 1372 1889 1356ZM2536 961Q2536 1052 2534 1128Q2533 1204 2531 1260Q2530 1317 2528 1350Q2527 1383 2527 1389Q2507 1403 2481 1404Q2456 1405 2431 1405Q2396 1405 2347 1388Q2298 1372 2252 1341Q2206 1311 2174 1266Q2142 1222 2142 1167Q2142 1135 2150 1116Q2159 1097 2170 1087Q2182 1078 2193 1075Q2205 1073 2210 1073Q2235 1073 2251 1081Q2267 1090 2280 1099Q2293 1109 2304 1117Q2316 1126 2331 1126Q2343 1126 2356 1120Q2370 1115 2381 1103Q2393 1091 2401 1071Q2409 1052 2409 1024Q2409 984 2393 955Q2378 926 2353 906Q2329 887 2297 877Q2266 868 2235 868Q2187 868 2148 884Q2110 901 2083 930Q2056 959 2042 998Q2028 1037 2028 1081Q2028 1185 2071 1262Q2115 1340 2187 1392Q2260 1444 2354 1469Q2449 1495 2550 1495Q2641 1495 2700 1483Q2759 1471 2796 1451Q2833 1431 2854 1403Q2875 1376 2890 1346Q2951 1222 3008 1102Q3066 982 3119 868Q3173 754 3223 648Q3274 543 3322 449L3322 592L3322 901Q3322 984 3326 1063Q3331 1143 3345 1213Q3360 1284 3389 1343Q3418 1402 3466 1445Q3515 1488 3587 1512Q3659 1536 3760 1536Q3811 1536 3854 1528Q3897 1521 3928 1507Q3960 1493 3978 1472Q3996 1452 3996 1427Q3996 1411 3991 1393Q3987 1376 3978 1362Q3969 1348 3955 1338Q3942 1329 3924 1329Q3909 1329 3896 1350Q3884 1371 3865 1396Q3847 1422 3816 1443Q3786 1464 3734 1464Q3653 1464 3599 1435Q3546 1407 3513 1355Q3480 1303 3464 1228Q3449 1154 3445 1063Q3443 1000 3441 940Q3440 881 3439 820Q3439 759 3439 693Q3439 628 3439 553Q3439 447 3440 363Q3441 279 3443 225Q3488 148 3532 86Q3576 25 3618 -18Q3661 -60 3704 -83Q3747 -106 3791 -106Q3805 -106 3818 -102Q3831 -98 3841 -93Q3852 -88 3863 -80L3895 -119Q3881 -129 3855 -143Q3830 -157 3793 -170Q3757 -183 3710 -192Q3663 -201 3607 -201Q3526 -201 3451 -162Q3377 -122 3308 -53Q3239 16 3176 108Q3113 201 3054 307Q2996 413 2942 528Q2888 643 2837 755Q2787 868 2740 973Q2694 1079 2650 1167Q2650 1109 2651 1047Q2652 985 2652 922L2652 612Q2652 529 2648 450Q2644 371 2629 300Q2614 230 2585 170Q2557 111 2508 68Q2459 25 2387 1Q2315 -23 2214 -23Q2163 -23 2120 -16Q2077 -8 2045 6Q2014 20 1996 40Q1979 60 1979 86Q1979 102 1983 119Q1988 137 1997 151Q2006 165 2019 174Q2032 184 2050 184Q2060 184 2068 174Q2077 164 2086 149Q2096 134 2108 116Q2121 99 2138 84Q2156 69 2181 59Q2206 49 2241 49Q2322 49 2375 77Q2429 106 2462 158Q2495 211 2510 285Q2525 359 2529 451Q2532 514 2533 573Q2534 632 2535 693Q2536 754 2536 820Q2536 886 2536 961ZM5055 705L5055 616L4911 616L4911 29Q4911 -107 4865 -209Q4819 -310 4736 -378Q4654 -445 4541 -479Q4428 -512 4295 -512Q4244 -512 4197 -504Q4150 -495 4114 -480Q4078 -465 4056 -445Q4035 -424 4035 -399Q4035 -381 4040 -363Q4045 -344 4055 -329Q4065 -314 4079 -305Q4094 -295 4112 -295Q4124 -295 4132 -306Q4140 -317 4149 -333Q4158 -349 4170 -369Q4182 -388 4200 -404Q4218 -420 4244 -431Q4270 -442 4309 -442Q4386 -442 4445 -414Q4504 -386 4543 -336Q4583 -285 4603 -215Q4624 -144 4624 -59L4624 2Q4582 -7 4539 -12Q4497 -16 4444 -16Q4308 -16 4189 25Q4070 67 3981 154Q3893 241 3842 376Q3791 511 3791 698Q3791 828 3819 938Q3847 1048 3897 1136Q3947 1225 4015 1292Q4084 1359 4164 1404Q4245 1449 4334 1472Q4424 1495 4516 1495Q4603 1495 4678 1478Q4753 1462 4808 1430Q4864 1399 4896 1352Q4928 1306 4928 1247Q4928 1220 4918 1190Q4909 1161 4891 1136Q4873 1112 4845 1096Q4818 1081 4782 1081Q4739 1081 4718 1105Q4698 1130 4687 1166Q4677 1202 4672 1245Q4667 1288 4655 1324Q4643 1360 4618 1384Q4594 1409 4547 1409Q4512 1409 4468 1392Q4424 1375 4379 1338Q4334 1302 4290 1245Q4247 1189 4213 1110Q4180 1031 4159 928Q4139 826 4139 698Q4139 556 4157 455Q4175 355 4204 287Q4234 220 4272 180Q4311 141 4352 121Q4393 101 4433 95Q4474 90 4508 90Q4543 90 4572 95Q4601 101 4624 111L4624 616L4448 616L4448 705L5055 705ZM5401 678L5401 766L5583 766L5583 1335Q5583 1357 5578 1370Q5573 1383 5564 1390Q5555 1398 5542 1400Q5530 1403 5515 1403Q5493 1403 5460 1396Q5428 1389 5392 1375Q5356 1361 5319 1340Q5283 1320 5254 1294Q5226 1268 5208 1236Q5190 1204 5190 1167Q5190 1135 5198 1116Q5207 1097 5218 1087Q5229 1078 5240 1075Q5252 1073 5257 1073Q5282 1073 5298 1081Q5314 1090 5327 1099Q5340 1109 5351 1117Q5363 1126 5378 1126Q5390 1126 5403 1120Q5417 1115 5428 1103Q5440 1091 5448 1071Q5456 1052 5456 1024Q5456 984 5440 955Q5425 926 5400 906Q5376 887 5344 877Q5313 868 5282 868Q5234 868 5195 884Q5157 901 5130 930Q5103 959 5089 998Q5075 1037 5075 1081Q5075 1150 5100 1207Q5125 1265 5168 1311Q5212 1357 5270 1391Q5329 1426 5397 1449Q5465 1472 5539 1483Q5613 1495 5687 1495Q5769 1495 5814 1479Q5860 1464 5881 1442Q5903 1420 5907 1396Q5911 1372 5911 1356L5911 766L6279 766L6279 1247Q6279 1412 6322 1528Q6365 1644 6433 1717Q6501 1791 6585 1824Q6669 1858 6752 1858Q6809 1858 6860 1849Q6912 1841 6950 1824Q6989 1807 7012 1781Q7035 1756 7035 1722Q7035 1707 7030 1693Q7026 1680 7018 1669Q7010 1658 6999 1651Q6989 1645 6978 1645Q6960 1645 6946 1656Q6932 1667 6919 1683Q6907 1700 6895 1719Q6883 1739 6868 1755Q6853 1772 6834 1783Q6815 1794 6789 1794Q6728 1794 6692 1760Q6656 1727 6637 1662Q6618 1598 6612 1502Q6607 1406 6607 1282L6607 766L6808 766L6808 678L6607 678L6607 70Q6607 41 6619 23Q6632 6 6658 6Q6686 6 6710 16Q6734 26 6752 35L6769 -2Q6747 -17 6717 -34Q6688 -50 6652 -65Q6617 -79 6576 -89Q6536 -98 6492 -98Q6424 -98 6382 -80Q6340 -62 6317 -33Q6294 -3 6286 34Q6279 71 6279 109L6279 678L5911 678L5911 180Q5911 44 5861 -57Q5812 -158 5726 -226Q5640 -293 5523 -327Q5407 -360 5274 -360Q5223 -360 5176 -352Q5129 -343 5093 -328Q5057 -313 5035 -293Q5014 -272 5014 -248Q5014 -230 5019 -212Q5024 -193 5034 -178Q5044 -163 5058 -153Q5073 -143 5091 -143Q5102 -143 5110 -154Q5119 -165 5128 -182Q5137 -198 5148 -217Q5160 -236 5178 -253Q5197 -269 5223 -280Q5249 -291 5288 -291Q5365 -291 5420 -263Q5476 -235 5512 -184Q5548 -133 5565 -63Q5583 8 5583 92L5583 678L5401 678Z" fill="#ffffff" style=""></path></g></g></g></svg>